<?xml version="1.0" encoding="UTF-8" standalone="no"?>
<svg
   width="16"
   height="16"
   viewBox="0 0 16 16"
   gpa:version="1"
   version="1.1"
   id="svg6"
   sodipodi:docname="tb-calendar-time-symbolic.svg"
   xmlns:inkscape="http://www.inkscape.org/namespaces/inkscape"
   xmlns:sodipodi="http://sodipodi.sourceforge.net/DTD/sodipodi-0.dtd"
   xmlns="http://www.w3.org/2000/svg"
   xmlns:svg="http://www.w3.org/2000/svg"
   xmlns:gpa="https://www.gtk.org/grappa">
  <defs
     id="defs6" />
  <sodipodi:namedview
     id="namedview6"
     pagecolor="#ffffff"
     bordercolor="#000000"
     borderopacity="0.25"
     inkscape:showpageshadow="2"
     inkscape:pageopacity="0.0"
     inkscape:pagecheckerboard="0"
     inkscape:deskcolor="#d1d1d1" />
  <path
     style="baseline-shift:baseline;display:inline;overflow:visible;vector-effect:none;stroke-linecap:round;stroke-linejoin:round;enable-background:accumulate;stop-color:#000000;stop-opacity:1;opacity:1"
     d="m 3.3300781,2.6640625 c -1.0943835,0 -1.9941406,0.9063999 -1.9941406,2.0058594 v 8.0000001 c 0,1.094383 0.8997571,1.99414 1.9941406,1.994141 H 7.859375 A 0.66500002,0.66500002 0 0 0 8.5253906,14 0.66500002,0.66500002 0 0 0 7.859375,13.335938 H 3.3300781 c -0.3656164,0 -0.6660156,-0.3004 -0.6660156,-0.666016 V 4.6699219 c 0,-0.3805406 0.3003992,-0.6757813 0.6660156,-0.6757813 h 7.9999999 c 0.380541,0 0.675781,0.2952407 0.675781,0.6757813 v 2.6601562 a 0.66500002,0.66500002 0 0 0 0.664063,0.6640625 0.66500002,0.66500002 0 0 0 0.666016,-0.6640625 V 4.6699219 c 0,-1.0994595 -0.9064,-2.0058594 -2.00586,-2.0058594 z"
     id="path1" />
  <path
     style="baseline-shift:baseline;display:inline;overflow:visible;vector-effect:none;stroke-linecap:round;stroke-linejoin:round;enable-background:accumulate;stop-color:#000000;stop-opacity:1;opacity:1"
     d="m 12,8.6640625 c -1.831905,0 -3.3359375,1.5040325 -3.3359375,3.3359375 0,1.831905 1.5040325,3.335938 3.3359375,3.335938 1.831905,0 3.335938,-1.504033 3.335938,-3.335938 0,-1.831905 -1.504033,-3.3359375 -3.335938,-3.3359375 z m 0,1.3300781 c 1.108095,0 2.005859,0.8977644 2.005859,2.0058594 0,1.108095 -0.897764,2.005859 -2.005859,2.005859 -1.108095,0 -2.0058594,-0.897764 -2.0058594,-2.005859 0,-1.108095 0.8977644,-2.0058594 2.0058594,-2.0058594 z"
     id="path2" />
  <path
     style="baseline-shift:baseline;display:inline;overflow:visible;vector-effect:none;stroke-linecap:round;stroke-linejoin:round;enable-background:accumulate;stop-color:#000000;stop-opacity:1;opacity:1"
     d="M 10,1.3359375 A 0.66500002,0.66500002 0 0 0 9.3359375,2 V 4.6699219 A 0.66500002,0.66500002 0 0 0 10,5.3359375 0.66500002,0.66500002 0 0 0 10.664063,4.6699219 V 2 A 0.66500002,0.66500002 0 0 0 10,1.3359375 Z"
     id="path3" />
  <path
     style="baseline-shift:baseline;display:inline;overflow:visible;vector-effect:none;stroke-linecap:round;stroke-linejoin:round;enable-background:accumulate;stop-color:#000000;stop-opacity:1;opacity:1"
     d="M 4.6699219,1.3359375 A 0.66500002,0.66500002 0 0 0 4.0058594,2 V 4.6699219 A 0.66500002,0.66500002 0 0 0 4.6699219,5.3359375 0.66500002,0.66500002 0 0 0 5.3359375,4.6699219 V 2 A 0.66500002,0.66500002 0 0 0 4.6699219,1.3359375 Z"
     id="path4" />
  <path
     style="baseline-shift:baseline;display:inline;overflow:visible;vector-effect:none;stroke-linecap:round;stroke-linejoin:round;enable-background:accumulate;stop-color:#000000;stop-opacity:1;opacity:1"
     d="M 2,6.6640625 A 0.66500002,0.66500002 0 0 0 1.3359375,7.3300781 0.66500002,0.66500002 0 0 0 2,7.9941406 H 12.669922 A 0.66500002,0.66500002 0 0 0 13.335938,7.3300781 0.66500002,0.66500002 0 0 0 12.669922,6.6640625 Z"
     id="path5" />
  <path
     style="baseline-shift:baseline;display:inline;overflow:visible;vector-effect:none;stroke-linecap:round;stroke-linejoin:round;enable-background:accumulate;stop-color:#000000;stop-opacity:1;opacity:1"
     d="M 12,10.335938 A 0.66500002,0.66500002 0 0 0 11.335938,11 v 1 a 0.66506652,0.66506652 0 0 0 0.193359,0.470703 l 0.669922,0.669922 a 0.66500002,0.66500002 0 0 0 0.941406,0 0.66500002,0.66500002 0 0 0 0,-0.941406 l -0.476562,-0.47461 V 11 A 0.66500002,0.66500002 0 0 0 12,10.335938 Z"
     id="path6" />
</svg>
