<?xml version="1.0" encoding="UTF-8" standalone="no"?>
<svg
   width="16"
   height="16"
   viewBox="0 0 16 16"
   gpa:version="1"
   version="1.1"
   id="svg1"
   sodipodi:docname="tb-loader-2-symbolic.svg"
   xmlns:inkscape="http://www.inkscape.org/namespaces/inkscape"
   xmlns:sodipodi="http://sodipodi.sourceforge.net/DTD/sodipodi-0.dtd"
   xmlns="http://www.w3.org/2000/svg"
   xmlns:svg="http://www.w3.org/2000/svg"
   xmlns:gpa="https://www.gtk.org/grappa">
  <defs
     id="defs1" />
  <sodipodi:namedview
     id="namedview1"
     pagecolor="#ffffff"
     bordercolor="#000000"
     borderopacity="0.25"
     inkscape:showpageshadow="2"
     inkscape:pageopacity="0.0"
     inkscape:pagecheckerboard="0"
     inkscape:deskcolor="#d1d1d1" />
  <path
     style="baseline-shift:baseline;display:inline;overflow:visible;vector-effect:none;stroke-linecap:round;stroke-linejoin:round;enable-background:accumulate;stop-color:#000000;stop-opacity:1;opacity:1"
     d="M 8,1.3359375 C 4.3297079,1.3359375 1.3359375,4.3297079 1.3359375,8 c 0,3.670292 2.9937704,6.664063 6.6640625,6.664063 3.670292,0 6.664063,-2.993771 6.664063,-6.664063 A 0.66500002,0.66500002 0 0 0 14,7.3359375 0.66500002,0.66500002 0 0 0 13.335938,8 c 0,2.949708 -2.38623,5.335938 -5.335938,5.335938 C 5.0502921,13.335938 2.6640625,10.949708 2.6640625,8 2.6640625,5.0502921 5.0502921,2.6640625 8,2.6640625 A 0.66500002,0.66500002 0 0 0 8.6640625,2 0.66500002,0.66500002 0 0 0 8,1.3359375 Z"
     id="path1" />
</svg>
