<?xml version="1.0" encoding="UTF-8" standalone="no"?>
<svg
   width="16"
   height="16"
   viewBox="0 0 16 16"
   gpa:version="1"
   version="1.1"
   id="svg4"
   sodipodi:docname="tb-wifi-symbolic.svg"
   xmlns:inkscape="http://www.inkscape.org/namespaces/inkscape"
   xmlns:sodipodi="http://sodipodi.sourceforge.net/DTD/sodipodi-0.dtd"
   xmlns="http://www.w3.org/2000/svg"
   xmlns:svg="http://www.w3.org/2000/svg"
   xmlns:gpa="https://www.gtk.org/grappa">
  <defs
     id="defs4" />
  <sodipodi:namedview
     id="namedview4"
     pagecolor="#ffffff"
     bordercolor="#000000"
     borderopacity="0.25"
     inkscape:showpageshadow="2"
     inkscape:pageopacity="0.0"
     inkscape:pagecheckerboard="0"
     inkscape:deskcolor="#d1d1d1" />
  <path
     style="baseline-shift:baseline;display:inline;overflow:visible;vector-effect:none;stroke-linecap:round;stroke-linejoin:round;enable-background:accumulate;stop-color:#000000;stop-opacity:1;opacity:1"
     d="M 8,11.335938 A 0.66500002,0.66500002 0 0 0 7.3359375,12 0.66500002,0.66500002 0 0 0 8,12.664063 h 0.00977 A 0.66500002,0.66500002 0 0 0 8.6757813,12 0.66500002,0.66500002 0 0 0 8.0097656,11.335938 Z"
     id="path1" />
  <path
     style="baseline-shift:baseline;display:inline;overflow:visible;vector-effect:none;stroke-linecap:round;stroke-linejoin:round;enable-background:accumulate;stop-color:#000000;stop-opacity:1;opacity:1"
     d="m 8,8.6699219 c -0.8534922,0 -1.7064355,0.3220104 -2.3574219,0.9667969 a 0.66500002,0.66500002 0 0 0 -0.00586,0.9414062 0.66500002,0.66500002 0 0 0 0.9414063,0.0039 c 0.7980273,-0.7904268 2.0457227,-0.7904268 2.84375,0 a 0.66500002,0.66500002 0 0 0 0.941406,-0.0039 0.66500002,0.66500002 0 0 0 -0.0059,-0.9414062 C 9.7064355,8.9919323 8.8534922,8.6699219 8,8.6699219 Z"
     id="path2" />
  <path
     style="baseline-shift:baseline;display:inline;overflow:visible;vector-effect:none;stroke-linecap:round;stroke-linejoin:round;enable-background:accumulate;stop-color:#000000;stop-opacity:1;opacity:1"
     d="m 8,6.0058594 c -1.5860757,0 -3.1148408,0.6285126 -4.2402344,1.7539062 a 0.66500002,0.66500002 0 0 0 0,0.9414063 0.66500002,0.66500002 0 0 0 0.9414063,0 C 5.5757783,7.8265655 6.7660757,7.3359375 8,7.3359375 c 1.2339243,0 2.424222,0.490628 3.298828,1.3652344 a 0.66500002,0.66500002 0 0 0 0.941406,0 0.66500002,0.66500002 0 0 0 0,-0.9414063 C 11.114841,6.634372 9.5860757,6.0058594 8,6.0058594 Z"
     id="path3" />
  <path
     style="baseline-shift:baseline;display:inline;overflow:visible;vector-effect:none;stroke-linecap:round;stroke-linejoin:round;enable-background:accumulate;stop-color:#000000;stop-opacity:1;opacity:1"
     d="m 8.0019531,3.3398438 c -2.221015,7.05e-5 -4.4389618,0.8428047 -6.1308594,2.5292968 a 0.66500002,0.66500002 0 0 0 -0.00195,0.9394531 0.66500002,0.66500002 0 0 0 0.9394532,0.00195 C 5.6847987,3.9435311 10.315863,3.9430634 13.212891,6.8125 a 0.66500002,0.66500002 0 0 0 0.939453,-0.00391 0.66500002,0.66500002 0 0 0 -0.0039,-0.9414062 C 12.446951,4.1819058 10.222968,3.3397732 8.0019531,3.3398438 Z"
     id="path4" />
</svg>
