<?xml version="1.0" encoding="UTF-8" standalone="no"?>
<svg
   width="16"
   height="16"
   viewBox="0 0 16 16"
   gpa:version="1"
   version="1.1"
   id="svg3"
   sodipodi:docname="tb-xbox-x-symbolic.svg"
   xmlns:inkscape="http://www.inkscape.org/namespaces/inkscape"
   xmlns:sodipodi="http://sodipodi.sourceforge.net/DTD/sodipodi-0.dtd"
   xmlns="http://www.w3.org/2000/svg"
   xmlns:svg="http://www.w3.org/2000/svg"
   xmlns:gpa="https://www.gtk.org/grappa">
  <defs
     id="defs3" />
  <sodipodi:namedview
     id="namedview3"
     pagecolor="#ffffff"
     bordercolor="#000000"
     borderopacity="0.25"
     inkscape:showpageshadow="2"
     inkscape:pageopacity="0.0"
     inkscape:pagecheckerboard="0"
     inkscape:deskcolor="#d1d1d1" />
  <path
     style="baseline-shift:baseline;display:inline;overflow:visible;vector-effect:none;stroke-linecap:round;stroke-linejoin:round;enable-background:accumulate;stop-color:#000000;stop-opacity:1;opacity:1"
     d="M 8,1.3359375 C 4.3268988,1.3359375 1.3359375,4.3268988 1.3359375,8 c 0,3.673101 2.9909613,6.664063 6.6640625,6.664063 3.673101,0 6.664063,-2.990962 6.664063,-6.664063 C 14.664063,4.3268988 11.673101,1.3359375 8,1.3359375 Z m 0,1.328125 c 2.954316,0 5.335938,2.3816217 5.335938,5.3359375 0,2.954316 -2.381622,5.335938 -5.335938,5.335938 C 5.0456842,13.335938 2.6640625,10.954316 2.6640625,8 2.6640625,5.0456842 5.0456842,2.6640625 8,2.6640625 Z"
     id="path1" />
  <path
     style="baseline-shift:baseline;display:inline;overflow:visible;vector-effect:none;stroke-linecap:round;stroke-linejoin:round;enable-background:accumulate;stop-color:#000000;stop-opacity:1;opacity:1"
     d="M 6.09375,4.671875 A 0.66500002,0.66500002 0 0 0 5.6015625,4.7988281 0.66500002,0.66500002 0 0 0 5.46875,5.7285156 l 4,5.3300784 a 0.66500002,0.66500002 0 0 0 0.929688,0.132812 0.66500002,0.66500002 0 0 0 0.132812,-0.929687 l -4,-5.3300784 A 0.66500002,0.66500002 0 0 0 6.09375,4.671875 Z"
     id="path2" />
  <path
     style="baseline-shift:baseline;display:inline;overflow:visible;vector-effect:none;stroke-linecap:round;stroke-linejoin:round;enable-background:accumulate;stop-color:#000000;stop-opacity:1;opacity:1"
     d="M 10.398438,4.7988281 A 0.66500002,0.66500002 0 0 0 9.46875,4.9316406 l -4,5.3300784 A 0.66500002,0.66500002 0 0 0 5.6015625,11.191406 0.66500002,0.66500002 0 0 0 6.53125,11.058594 l 4,-5.3300784 A 0.66500002,0.66500002 0 0 0 10.398438,4.7988281 Z"
     id="path3" />
</svg>
